<svg width="20" height="18" viewBox="0 0 20 18" fill="none" xmlns="http://www.w3.org/2000/svg">
<path d="M8.30001 18C8.06132 18 7.8324 17.9052 7.66362 17.7364C7.49483 17.5676 7.40001 17.3387 7.40001 17.1C7.40001 16.8613 7.49483 16.6324 7.66362 16.4636C7.8324 16.2948 8.06132 16.2 8.30001 16.2H15.8C16.4365 16.2 17.047 15.9471 17.4971 15.4971C17.9472 15.047 18.2 14.4365 18.2 13.8V4.2C18.2 3.56348 17.9472 2.95303 17.4971 2.50294C17.047 2.05286 16.4365 1.8 15.8 1.8H8.30001C8.06132 1.8 7.8324 1.70518 7.66362 1.5364C7.49483 1.36761 7.40001 1.13869 7.40001 0.9C7.40001 0.661305 7.49483 0.432387 7.66362 0.263604C7.8324 0.094821 8.06132 0 8.30001 0H15.8C16.9139 0 17.9822 0.442499 18.7699 1.23015C19.5575 2.0178 20 3.08609 20 4.2V13.8C20 14.9139 19.5575 15.9822 18.7699 16.7699C17.9822 17.5575 16.9139 18 15.8 18H8.30001ZM8.28921 4.4388C8.37603 4.35857 8.47781 4.29623 8.58873 4.25534C8.69964 4.21446 8.81753 4.19582 8.93565 4.2005C9.05377 4.20518 9.16982 4.23309 9.27715 4.28262C9.38449 4.33216 9.48101 4.40235 9.56121 4.4892L13.1612 8.3892C13.3149 8.55549 13.4002 8.77359 13.4002 9C13.4002 9.22641 13.3149 9.44451 13.1612 9.6108L9.56121 13.5108C9.48092 13.5976 9.38433 13.6676 9.27695 13.7171C9.16958 13.7665 9.05352 13.7943 8.9354 13.7988C8.81729 13.8034 8.69943 13.7847 8.58855 13.7437C8.47768 13.7027 8.37596 13.6403 8.28921 13.56C8.20246 13.4797 8.13237 13.3831 8.08295 13.2757C8.03353 13.1684 8.00574 13.0523 8.00117 12.9342C7.99195 12.6956 8.07786 12.4632 8.24001 12.288L10.4456 9.8988H1.10001C0.861317 9.8988 0.632399 9.80398 0.463616 9.6352C0.294833 9.46641 0.200012 9.23749 0.200012 8.9988C0.200012 8.76011 0.294833 8.53119 0.463616 8.3624C0.632399 8.19362 0.861317 8.0988 1.10001 8.0988H10.4444L8.23881 5.7108C8.15858 5.62398 8.09624 5.5222 8.05536 5.41129C8.01447 5.30037 7.99583 5.18248 8.00051 5.06436C8.00519 4.94624 8.0331 4.8302 8.08263 4.72286C8.13217 4.61553 8.20236 4.519 8.28921 4.4388Z" fill="#FEC439"/>
</svg>
